<?xml version="1.0" encoding="utf-8"?>
<!-- Generator: Adobe Illustrator 20.0.0, SVG Export Plug-In . SVG Version: 6.00 Build 0)  -->
<svg version="1.1" id="Layer_1" xmlns="http://www.w3.org/2000/svg" xmlns:xlink="http://www.w3.org/1999/xlink" x="0px" y="0px"
	 viewBox="0 0 68 12" style="enable-background:new 0 0 68 12;" xml:space="preserve">
<style type="text/css">
	.st0{enable-background:new    ;}
	.st1{fill:#FFFFFF;}
	.st2{fill:none;stroke:#E2BA58;stroke-width:2;}
</style>
<title>Group 2</title>
<desc>Created with Sketch.</desc>
<g id="Design">
	<g id="copa-case-study" transform="translate(-177.000000, -86.000000)">
		<g id="Group-2" transform="translate(176.000000, 81.000000)">
			<g class="st0">
				<path class="st1" d="M1.6,5.5c0-0.2,0.1-0.3,0.3-0.3h3.4c3,0,5.4,2.4,5.4,5.4c0,3-2.4,5.4-5.4,5.4H1.8c-0.2,0-0.3-0.1-0.3-0.3
					V5.5z M5,14.9c2.5,0,4.4-1.8,4.4-4.3c0-2.5-1.8-4.3-4.4-4.3H2.7v8.7H5z"/>
			</g>
			<g class="st0">
				<path class="st1" d="M63.3,5.1c3.1,0,5.5,2.5,5.5,5.6s-2.5,5.5-5.5,5.5s-5.5-2.4-5.5-5.5S60.2,5.1,63.3,5.1z M63.3,15.1
					c2.4,0,4.5-2,4.5-4.4s-2-4.5-4.5-4.5c-2.4,0-4.4,2-4.4,4.5S60.9,15.1,63.3,15.1z"/>
			</g>
			<path id="Path-468" class="st2" d="M18,11h33.4"/>
		</g>
	</g>
</g>
</svg>
