<?xml version="1.0" standalone="no"?>
<!DOCTYPE svg PUBLIC "-//W3C//DTD SVG 20010904//EN"
 "http://www.w3.org/TR/2001/REC-SVG-20010904/DTD/svg10.dtd">
<svg version="1.0" xmlns="http://www.w3.org/2000/svg"
 width="700.000000pt" height="700.000000pt" viewBox="0 0 700.000000 700.000000"
 preserveAspectRatio="xMidYMid meet">
<metadata>
Created by potrace 1.11, written by Peter Selinger 2001-2013
</metadata>
<g transform="translate(0.000000,700.000000) scale(0.100000,-0.100000)"
fill="#000000" stroke="none">
<path d="M3310 6994 c-291 -25 -447 -48 -639 -95 -423 -103 -857 -302 -1206
-553 -293 -211 -600 -518 -811 -811 -303 -421 -523 -952 -604 -1457 -35 -222
-44 -340 -44 -578 0 -241 9 -362 45 -580 152 -919 675 -1747 1444 -2285 782
-547 1738 -748 2687 -565 470 91 970 309 1369 597 140 101 327 264 449 389
803 826 1147 1968 935 3104 -171 911 -723 1739 -1505 2257 -464 307 -971 491
-1535 558 -126 15 -494 27 -585 19z m1600 -3494 l0 -110 -1410 0 -1410 0 0
110 0 110 1410 0 1410 0 0 -110z"/>
</g>
</svg>
